HIERARCHY
ROOT Hips
{
	OFFSET 0.000000 0.000000 0.000000
	CHANNELS 6 Xposition Yposition Zposition Zrotation Yrotation Xrotation 
	JOINT LHipJoint
	{
		OFFSET 0.000000 0.000000 0.000000
		CHANNELS 3 Zrotation Yrotation Xrotation
		JOINT LeftUpLeg
		{
			OFFSET 1.363060 -1.794630 0.839290
			CHANNELS 3 Zrotation Yrotation Xrotation
			JOINT LeftLeg
			{
				OFFSET 2.448110 -6.726130 0.000000
				CHANNELS 3 Zrotation Yrotation Xrotation
				JOINT LeftFoot
				{
					OFFSET 2.562200 -7.039590 0.000000
					CHANNELS 3 Zrotation Yrotation Xrotation
					JOINT LeftToeBase
					{
						OFFSET 0.157640 -0.433110 2.322550
						CHANNELS 3 Zrotation Yrotation Xrotation
						End Site
						{
							OFFSET 0.000000 0.000000 0.000000
						}
					}
				}
			}
		}
	}
	JOINT RHipJoint
	{
		OFFSET 0.000000 0.000000 0.000000
		CHANNELS 3 Zrotation Yrotation Xrotation
		JOINT RightUpLeg
		{
			OFFSET -1.305520 -1.794630 0.839290
			CHANNELS 3 Zrotation Yrotation Xrotation
			JOINT RightLeg
			{
				OFFSET -2.542530 -6.985550 0.000000
				CHANNELS 3 Zrotation Yrotation Xrotation
				JOINT RightFoot
				{
					OFFSET -2.568260 -7.056230 0.000000
					CHANNELS 3 Zrotation Yrotation Xrotation
					JOINT RightToeBase
					{
						OFFSET -0.164730 -0.452590 2.363150
						CHANNELS 3 Zrotation Yrotation Xrotation
						End Site
						{
							OFFSET 0.000000 0.000000 0.000000
						}
					}
				}
			}
		}
	}
}
MOTION
Frames: 19
Frame Time: 0.008333
2.710273 15.922821 2.796793 -87.551614 -81.441985 137.333901 -8.597961 -5.250536 -2.674205 -4.277252 -6.691316 -77.726013 -0.779959 2.764132 50.771331 3.746668 12.175297 -21.791065 -2.484100 0.000001 -24.999699 7.579516 0.205531 10.963470 -7.216150 10.100124 -119.243184 7.031133 3.418728 -6.104081 1.397411 3.122224 8.712694 -0.432400 0.000000 -78.716400
2.714816 15.901547 2.795475 -87.107833 -81.506896 136.827297 -8.618333 -5.252962 -2.659640 -4.345878 -6.727132 -77.901402 -0.777540 2.806580 51.165320 3.727798 12.050339 -21.977728 -2.512900 0.000000 -24.955400 7.631276 0.149593 10.784543 -6.993297 10.072668 -118.778240 7.004302 2.829253 -4.031784 1.612368 3.732970 10.329827 -0.132800 -0.000000 -78.637800
2.716836 15.886144 2.793341 -86.215571 -81.638666 135.828454 -8.655724 -5.245701 -2.613681 -4.434615 -6.838502 -77.964133 -0.776782 2.827515 51.425669 3.705214 11.918841 -22.110821 -2.527600 -0.000000 -24.907600 7.656855 0.103542 10.555830 -6.637915 9.990735 -118.078422 6.956453 2.265106 -2.058929 1.822434 4.412500 11.879355 0.235100 -0.000000 -78.066600
2.716094 15.876546 2.789790 -84.908704 -81.834070 134.393542 -8.704549 -5.222094 -2.535472 -4.550594 -7.026502 -77.938988 -0.779425 2.827780 51.545306 3.679330 11.780170 -22.182128 -2.525800 0.000000 -24.870300 7.660265 0.067219 10.294817 -6.179318 9.853188 -117.175944 6.891351 1.750441 -0.224723 2.001315 5.072466 13.181891 0.619000 0.000000 -77.211300
2.712405 15.872528 2.784390 -83.220554 -82.085078 132.577111 -8.759933 -5.176986 -2.425557 -4.698181 -7.285861 -77.848965 -0.787050 2.809017 51.521639 3.650377 11.633293 -22.186391 -2.506100 0.000000 -24.855100 7.648302 0.037561 10.017546 -5.639823 9.669572 -116.126024 6.817174 1.290204 1.494056 2.132003 5.627267 14.105370 0.955900 0.000000 -76.336100
2.705781 15.873794 2.776765 -81.187691 -82.382309 130.430005 -8.817369 -5.106480 -2.284879 -4.880516 -7.608262 -77.715690 -0.801021 2.773509 51.356288 3.618402 11.476863 -22.120330 -2.467700 -0.000000 -24.873100 7.629391 0.010985 9.737261 -5.041112 9.452015 -114.996531 6.739310 0.874550 3.162694 2.204273 5.999046 14.577955 1.186100 0.000000 -75.676400
2.696456 15.880107 2.767006 -78.828369 -82.707746 127.976172 -8.875627 -5.012360 -2.117789 -5.090620 -7.973368 -77.547434 -0.821950 2.724125 51.056517 3.582463 11.307601 -21.985152 -2.410800 0.000000 -24.927300 7.606667 -0.015712 9.457804 -4.396460 9.215524 -113.829675 6.657892 0.488825 4.849202 2.211979 6.128276 14.593547 1.267800 -0.000000 -75.333400
2.684734 15.891059 2.755046 -76.168581 -83.048672 125.239745 -8.932695 -4.895334 -1.928243 -5.325779 -8.365391 -77.348493 -0.850252 2.663598 50.632778 3.542251 11.125045 -21.784442 -2.336700 0.000001 -25.026600 7.583932 -0.043198 9.180155 -3.723057 8.969088 -112.666904 6.567442 0.114219 6.630665 2.151152 5.980617 14.189961 1.185300 0.000001 -75.365800
2.670671 15.905997 2.740950 -73.220731 -83.394180 122.230764 -8.987689 -4.756751 -1.718050 -5.580780 -8.773268 -77.121992 -0.885548 2.593994 50.098041 3.498277 10.931582 -21.525804 -2.248200 -0.000000 -25.164700 7.563065 -0.071037 8.902257 -3.037047 8.716629 -111.541008 6.460031 -0.267831 8.579172 2.020652 5.554386 13.431792 0.951000 -0.000000 -75.640200
2.654703 15.924513 2.724978 -70.007962 -83.728664 118.960790 -9.040490 -4.600967 -1.492516 -5.845810 -9.179518 -76.861015 -0.926832 2.517650 49.469816 3.450712 10.729650 -21.220097 -2.148800 0.000000 -25.333300 7.541158 -0.094791 8.616607 -2.355477 8.459733 -110.446602 6.323271 -0.666252 10.720281 1.819525 4.862366 12.422514 0.594500 0.000000 -76.016700
2.637261 15.946042 2.707429 -66.570413 -84.037214 115.459004 -9.090667 -4.432471 -1.255893 -6.108764 -9.569713 -76.561173 -0.972380 2.436388 48.766494 3.400413 10.524163 -20.878547 -2.042500 -0.000000 -25.525500 7.514657 -0.108340 8.316758 -1.698942 8.198372 -109.365559 6.145422 -1.082382 13.048564 1.550934 3.936982 11.275384 0.156000 -0.000000 -76.295900
2.618639 15.970015 2.688577 -62.982360 -84.305604 111.792988 -9.137164 -4.255739 -1.010971 -6.355187 -9.933017 -76.224754 -1.019830 2.351474 48.007166 3.349151 10.322490 -20.513460 -1.933400 -0.000000 -25.725300 7.480731 -0.105510 8.000960 -1.092344 7.934126 -108.270948 5.918322 -1.507889 15.520421 1.223641 2.824404 10.101731 -0.323800 0.000000 -76.240700
2.591091 15.985963 2.692057 -53.774607 -84.356658 102.809790 -9.494658 -4.192601 -0.392644 -5.812777 -10.888081 -76.481132 -0.930462 2.224256 47.269431 3.304586 10.202058 -19.907530 -1.761300 0.000000 -26.268201 7.221128 -0.223836 7.654740 -0.050007 7.282337 -107.432105 5.874868 -1.975592 18.117005 0.875744 1.605686 8.819756 -0.824300 0.000000 -75.805600
2.571501 16.013523 2.671955 -50.438061 -84.451143 99.347313 -9.523384 -4.002834 -0.145081 -5.965929 -11.153415 -76.081164 -0.971562 2.137370 46.457206 3.255855 10.026442 -19.527065 -1.656400 -0.000000 -26.509299 7.167389 -0.166838 7.300678 0.444478 7.055861 -106.199330 5.551836 -2.383148 20.669858 0.486213 0.316484 7.870340 -1.280500 -0.000000 -75.033000
2.551587 16.041962 2.650791 -47.356840 -84.491220 96.129433 -9.540747 -3.819451 0.100509 -6.073017 -11.382037 -75.664724 -1.008080 2.047608 45.635922 3.212550 9.878464 -19.149522 -1.557000 -0.000001 -26.719400 7.112749 -0.091143 6.944600 0.842490 6.850233 -104.890736 5.193699 -2.755592 23.164294 0.103085 -0.941000 7.074725 -1.687799 -0.000000 -73.790700
2.531449 16.070852 2.629092 -44.620897 -84.474762 93.251868 -9.551065 -3.649698 0.344609 -6.117459 -11.573100 -75.246573 -1.037278 1.955350 44.817891 3.176017 9.762966 -18.779508 -1.463800 -0.000000 -26.916299 7.056643 -0.006648 6.593444 1.163035 6.686624 -103.505892 4.820926 -3.083462 25.547772 -0.248361 -2.087042 6.418991 -2.027300 0.000000 -72.221300
2.511529 16.100072 2.607153 -42.274458 -84.404749 90.756783 -9.558136 -3.499022 0.583008 -6.094149 -11.724896 -74.825026 -1.057703 1.861450 44.012058 3.146136 9.681162 -18.417603 -1.376800 0.000000 -27.132400 6.999180 0.079114 6.246543 1.435617 6.576372 -102.042326 4.451936 -3.364672 27.792182 -0.546618 -3.049618 5.871343 -2.282300 0.000000 -70.591700
2.491766 16.129129 2.584688 -40.291201 -84.298169 88.627033 -9.562278 -3.365230 0.818738 -6.010611 -11.853482 -74.415541 -1.069264 1.765990 43.221225 3.124523 9.637496 -18.065288 -1.295601 -0.000000 -27.345200 6.945502 0.160485 5.911682 1.670633 6.521843 -100.535261 4.100444 -3.602698 29.897974 -0.778955 -3.776098 5.362850 -2.439601 0.000000 -68.960599
2.472233 16.157780 2.561667 -38.611918 -84.164666 86.805210 -9.565512 -3.247409 1.050393 -5.874689 -11.965438 -74.017303 -1.072312 1.669819 42.448868 3.110358 9.629034 -17.721350 -1.219300 -0.000000 -27.568100 6.897581 0.233662 5.587613 1.894145 6.518096 -99.001218 3.776833 -3.803686 31.871904 -0.939791 -4.239041 4.843176 -2.493600 -0.000000 -67.523400
